  0
SECTION
  2
HEADER
  9
$ANGBASE
  50
0.0
  9
$ANGDIR
  70
1
  9
$MEASUREMENT
  70
0
  0
ENDSEC
  0
SECTION
  2
TABLES
  0
TABLE
  2
LTYPE
  70
4
  0
LTYPE
  5
40F
  2
CONTINUOUS
  70
0
  3
Solid line
  72
65
  73
0
  40
0.0
  0
LTYPE
  5
410
  2
DASHDOT
 70
0
  3
Dash Dot ____ _ ____ _
 72
65
 73
4
 40
2.0
 49
1.25
 49
-0.25
 49
0.25
 49
-0.25
  0
LTYPE
  5
411
  2
DASHED
 70
0
  3
Dashed __ __ __ __ __
 72
65
 73
2
 40
0.75
 49
0.5
 49
-0.25
  0
LTYPE
  5
43B
  2
DOTTED
 70
0
  3
Dotted .  .  .  .
 72
65
 73
2
 40
0.2
 49
0.0
 49
-0.2
  0
ENDTAB
  0
TABLE
  2
STYLE
  70
4
  0
STYLE
  2
KICAD
  70
0
  40
0
  41
1
  42
1
  50
0
  71
0
  3
isocp.shx
  0
STYLE
  2
KICADB
  70
0
  40
0
  41
1
  42
1
  50
0
  71
0
  3
isocp.shx
  0
STYLE
  2
KICADI
  70
0
  40
0
  41
1
  42
1
  50
15
  71
0
  3
isocp.shx
  0
STYLE
  2
KICADBI
  70
0
  40
0
  41
1
  42
1
  50
15
  71
0
  3
isocp.shx
  0
ENDTAB
  0
TABLE
  2
LAYER
  70
1
  0
LAYER
  2
BLACK
  70
0
  62
7
  6
CONTINUOUS
  0
ENDTAB
  0
ENDSEC
  0
SECTION
  2
ENTITIES
0
LINE
8
BLACK
6
CONTINUOUS
10
5.68519
20
-2.60926
11
5.68555
21
-2.60934
0
LINE
8
BLACK
6
CONTINUOUS
10
5.68555
20
-2.60934
11
5.68568
21
-2.60932
0
LINE
8
BLACK
6
CONTINUOUS
10
5.68568
20
-2.60932
11
5.68579
21
-2.60939
0
LINE
8
BLACK
6
CONTINUOUS
10
5.68579
20
-2.60939
11
5.68619
21
-2.60948
0
LINE
8
BLACK
6
CONTINUOUS
10
5.68619
20
-2.60948
11
5.68674
21
-2.61
0
LINE
8
BLACK
6
CONTINUOUS
10
5.68674
20
-2.61
11
5.68738
21
-2.61041
0
LINE
8
BLACK
6
CONTINUOUS
10
5.68738
20
-2.61041
11
5.68747
21
-2.61067
0
LINE
8
BLACK
6
CONTINUOUS
10
5.68747
20
-2.61067
11
5.68767
21
-2.61086
0
LINE
8
BLACK
6
CONTINUOUS
10
5.68767
20
-2.61086
11
5.68776
21
-2.61161
0
LINE
8
BLACK
6
CONTINUOUS
10
5.68776
20
-2.61161
11
5.68799
21
-2.61234
0
LINE
8
BLACK
6
CONTINUOUS
10
5.68799
20
-2.61234
11
5.57972
21
-5.06115
0
LINE
8
BLACK
6
CONTINUOUS
10
5.57972
20
-5.06115
11
5.5795
21
-5.06216
0
LINE
8
BLACK
6
CONTINUOUS
10
5.5795
20
-5.06216
11
5.57922
21
-5.06246
0
LINE
8
BLACK
6
CONTINUOUS
10
5.57922
20
-5.06246
11
5.5791
21
-5.06284
0
LINE
8
BLACK
6
CONTINUOUS
10
5.5791
20
-5.06284
11
5.57856
21
-5.06318
0
LINE
8
BLACK
6
CONTINUOUS
10
5.57856
20
-5.06318
11
5.57813
21
-5.06364
0
LINE
8
BLACK
6
CONTINUOUS
10
5.57813
20
-5.06364
11
5.57773
21
-5.0637
0
LINE
8
BLACK
6
CONTINUOUS
10
5.57773
20
-5.0637
11
5.57738
21
-5.06391
0
LINE
8
BLACK
6
CONTINUOUS
10
5.57738
20
-5.06391
11
5.57676
21
-5.06382
0
LINE
8
BLACK
6
CONTINUOUS
10
5.57676
20
-5.06382
11
5.57613
21
-5.06391
0
LINE
8
BLACK
6
CONTINUOUS
10
5.57613
20
-5.06391
11
5.57579
21
-5.06369
0
LINE
8
BLACK
6
CONTINUOUS
10
5.57579
20
-5.06369
11
5.57538
21
-5.06363
0
LINE
8
BLACK
6
CONTINUOUS
10
5.57538
20
-5.06363
11
4.83326
21
-4.66796
0
LINE
8
BLACK
6
CONTINUOUS
10
4.83326
20
-4.66796
11
4.83245
21
-4.66733
0
LINE
8
BLACK
6
CONTINUOUS
10
4.83245
20
-4.66733
11
4.8324
21
-4.6672
0
LINE
8
BLACK
6
CONTINUOUS
10
4.8324
20
-4.6672
11
4.83228
21
-4.66713
0
LINE
8
BLACK
6
CONTINUOUS
10
4.83228
20
-4.66713
11
4.83203
21
-4.66628
0
LINE
8
BLACK
6
CONTINUOUS
10
4.83203
20
-4.66628
11
4.83169
21
-4.66545
0
LINE
8
BLACK
6
CONTINUOUS
10
4.83169
20
-4.66545
11
4.83174
21
-4.66532
0
LINE
8
BLACK
6
CONTINUOUS
10
4.83174
20
-4.66532
11
4.8317
21
-4.66519
0
LINE
8
BLACK
6
CONTINUOUS
10
4.8317
20
-4.66519
11
4.94587
21
-2.57464
0
LINE
8
BLACK
6
CONTINUOUS
10
4.94587
20
-2.57464
11
4.94596
21
-2.57427
0
LINE
8
BLACK
6
CONTINUOUS
10
4.94596
20
-2.57427
11
4.94594
21
-2.57414
0
LINE
8
BLACK
6
CONTINUOUS
10
4.94594
20
-2.57414
11
4.94601
21
-2.57403
0
LINE
8
BLACK
6
CONTINUOUS
10
4.94601
20
-2.57403
11
4.9461
21
-2.57364
0
LINE
8
BLACK
6
CONTINUOUS
10
4.9461
20
-2.57364
11
4.94662
21
-2.57309
0
LINE
8
BLACK
6
CONTINUOUS
10
4.94662
20
-2.57309
11
4.94704
21
-2.57245
0
LINE
8
BLACK
6
CONTINUOUS
10
4.94704
20
-2.57245
11
4.9473
21
-2.57237
0
LINE
8
BLACK
6
CONTINUOUS
10
4.9473
20
-2.57237
11
4.94748
21
-2.57217
0
LINE
8
BLACK
6
CONTINUOUS
10
4.94748
20
-2.57217
11
4.94824
21
-2.57208
0
LINE
8
BLACK
6
CONTINUOUS
10
4.94824
20
-2.57208
11
4.94897
21
-2.57185
0
LINE
8
BLACK
6
CONTINUOUS
10
4.94897
20
-2.57185
11
5.68519
21
-2.60926
0
LINE
8
BLACK
6
CONTINUOUS
10
4.8377
20
-4.66363
11
5.57403
21
-5.05621
0
LINE
8
BLACK
6
CONTINUOUS
10
5.57403
20
-5.05621
11
5.68196
21
-2.615
0
LINE
8
BLACK
6
CONTINUOUS
10
5.68196
20
-2.615
11
4.95161
21
-2.5779
0
LINE
8
BLACK
6
CONTINUOUS
10
4.95161
20
-2.5779
11
4.8377
21
-4.66363
0
LINE
8
BLACK
6
CONTINUOUS
10
5.4225
20
-4.89127
11
5.42641
21
-4.88287
0
LINE
8
BLACK
6
CONTINUOUS
10
5.42641
20
-4.88287
11
5.43173
21
-4.87528
0
LINE
8
BLACK
6
CONTINUOUS
10
5.43173
20
-4.87528
11
5.43828
21
-4.86873
0
LINE
8
BLACK
6
CONTINUOUS
10
5.43828
20
-4.86873
11
5.44587
21
-4.86342
0
LINE
8
BLACK
6
CONTINUOUS
10
5.44587
20
-4.86342
11
5.45426
21
-4.8595
0
LINE
8
BLACK
6
CONTINUOUS
10
5.45426
20
-4.8595
11
5.46321
21
-4.85711
0
LINE
8
BLACK
6
CONTINUOUS
10
5.46321
20
-4.85711
11
5.47244
21
-4.8563
0
LINE
8
BLACK
6
CONTINUOUS
10
5.47244
20
-4.8563
11
5.48167
21
-4.85711
0
LINE
8
BLACK
6
CONTINUOUS
10
5.48167
20
-4.85711
11
5.49062
21
-4.8595
0
LINE
8
BLACK
6
CONTINUOUS
10
5.49062
20
-4.8595
11
5.49902
21
-4.86342
0
LINE
8
BLACK
6
CONTINUOUS
10
5.49902
20
-4.86342
11
5.5066
21
-4.86873
0
LINE
8
BLACK
6
CONTINUOUS
10
5.5066
20
-4.86873
11
5.51316
21
-4.87528
0
LINE
8
BLACK
6
CONTINUOUS
10
5.51316
20
-4.87528
11
5.51847
21
-4.88287
0
LINE
8
BLACK
6
CONTINUOUS
10
5.51847
20
-4.88287
11
5.52239
21
-4.89127
0
LINE
8
BLACK
6
CONTINUOUS
10
5.52239
20
-4.89127
11
5.52478
21
-4.90022
0
LINE
8
BLACK
6
CONTINUOUS
10
5.52478
20
-4.90022
11
5.52559
21
-4.90945
0
LINE
8
BLACK
6
CONTINUOUS
10
5.52559
20
-4.90945
11
5.52478
21
-4.91868
0
LINE
8
BLACK
6
CONTINUOUS
10
5.52478
20
-4.91868
11
5.52239
21
-4.92763
0
LINE
8
BLACK
6
CONTINUOUS
10
5.52239
20
-4.92763
11
5.51847
21
-4.93602
0
LINE
8
BLACK
6
CONTINUOUS
10
5.51847
20
-4.93602
11
5.51316
21
-4.94361
0
LINE
8
BLACK
6
CONTINUOUS
10
5.51316
20
-4.94361
11
5.5066
21
-4.95016
0
LINE
8
BLACK
6
CONTINUOUS
10
5.5066
20
-4.95016
11
5.49902
21
-4.95548
0
LINE
8
BLACK
6
CONTINUOUS
10
5.49902
20
-4.95548
11
5.49062
21
-4.95939
0
LINE
8
BLACK
6
CONTINUOUS
10
5.49062
20
-4.95939
11
5.48167
21
-4.96179
0
LINE
8
BLACK
6
CONTINUOUS
10
5.48167
20
-4.96179
11
5.47244
21
-4.9626
0
LINE
8
BLACK
6
CONTINUOUS
10
5.47244
20
-4.9626
11
5.46321
21
-4.96179
0
LINE
8
BLACK
6
CONTINUOUS
10
5.46321
20
-4.96179
11
5.45426
21
-4.95939
0
LINE
8
BLACK
6
CONTINUOUS
10
5.45426
20
-4.95939
11
5.44587
21
-4.95548
0
LINE
8
BLACK
6
CONTINUOUS
10
5.44587
20
-4.95548
11
5.43828
21
-4.95016
0
LINE
8
BLACK
6
CONTINUOUS
10
5.43828
20
-4.95016
11
5.43173
21
-4.94361
0
LINE
8
BLACK
6
CONTINUOUS
10
5.43173
20
-4.94361
11
5.42641
21
-4.93602
0
LINE
8
BLACK
6
CONTINUOUS
10
5.42641
20
-4.93602
11
5.4225
21
-4.92763
0
LINE
8
BLACK
6
CONTINUOUS
10
5.4225
20
-4.92763
11
5.4201
21
-4.91868
0
LINE
8
BLACK
6
CONTINUOUS
10
5.4201
20
-4.91868
11
5.41929
21
-4.90945
0
LINE
8
BLACK
6
CONTINUOUS
10
5.41929
20
-4.90945
11
5.4194
21
-4.90826
0
LINE
8
BLACK
6
CONTINUOUS
10
5.4194
20
-4.90826
11
5.4201
21
-4.90022
0
LINE
8
BLACK
6
CONTINUOUS
10
5.4201
20
-4.90022
11
5.4225
21
-4.89127
0
LINE
8
BLACK
6
CONTINUOUS
10
5.42958
20
-4.92463
11
5.43306
21
-4.93218
0
LINE
8
BLACK
6
CONTINUOUS
10
5.43306
20
-4.93218
11
5.43787
21
-4.93898
0
LINE
8
BLACK
6
CONTINUOUS
10
5.43787
20
-4.93898
11
5.44383
21
-4.94479
0
LINE
8
BLACK
6
CONTINUOUS
10
5.44383
20
-4.94479
11
5.45074
21
-4.94941
0
LINE
8
BLACK
6
CONTINUOUS
10
5.45074
20
-4.94941
11
5.45839
21
-4.95269
0
LINE
8
BLACK
6
CONTINUOUS
10
5.45839
20
-4.95269
11
5.46651
21
-4.95453
0
LINE
8
BLACK
6
CONTINUOUS
10
5.46651
20
-4.95453
11
5.47482
21
-4.95486
0
LINE
8
BLACK
6
CONTINUOUS
10
5.47482
20
-4.95486
11
5.48306
21
-4.95366
0
LINE
8
BLACK
6
CONTINUOUS
10
5.48306
20
-4.95366
11
5.49094
21
-4.95099
0
LINE
8
BLACK
6
CONTINUOUS
10
5.49094
20
-4.95099
11
5.4982
21
-4.94692
0
LINE
8
BLACK
6
CONTINUOUS
10
5.4982
20
-4.94692
11
5.50459
21
-4.9416
0
LINE
8
BLACK
6
CONTINUOUS
10
5.50459
20
-4.9416
11
5.50991
21
-4.9352
0
LINE
8
BLACK
6
CONTINUOUS
10
5.50991
20
-4.9352
11
5.51398
21
-4.92794
0
LINE
8
BLACK
6
CONTINUOUS
10
5.51398
20
-4.92794
11
5.51665
21
-4.92006
0
LINE
8
BLACK
6
CONTINUOUS
10
5.51665
20
-4.92006
11
5.51785
21
-4.91183
0
LINE
8
BLACK
6
CONTINUOUS
10
5.51785
20
-4.91183
11
5.51791
21
-4.90945
0
LINE
8
BLACK
6
CONTINUOUS
10
5.51791
20
-4.90945
11
5.51715
21
-4.90116
0
LINE
8
BLACK
6
CONTINUOUS
10
5.51715
20
-4.90116
11
5.51489
21
-4.89315
0
LINE
8
BLACK
6
CONTINUOUS
10
5.51489
20
-4.89315
11
5.51121
21
-4.88569
0
LINE
8
BLACK
6
CONTINUOUS
10
5.51121
20
-4.88569
11
5.50623
21
-4.87902
0
LINE
8
BLACK
6
CONTINUOUS
10
5.50623
20
-4.87902
11
5.50012
21
-4.87338
0
LINE
8
BLACK
6
CONTINUOUS
10
5.50012
20
-4.87338
11
5.49308
21
-4.86894
0
LINE
8
BLACK
6
CONTINUOUS
10
5.49308
20
-4.86894
11
5.48536
21
-4.86585
0
LINE
8
BLACK
6
CONTINUOUS
10
5.48536
20
-4.86585
11
5.47719
21
-4.86423
0
LINE
8
BLACK
6
CONTINUOUS
10
5.47719
20
-4.86423
11
5.46887
21
-4.86412
0
LINE
8
BLACK
6
CONTINUOUS
10
5.46887
20
-4.86412
11
5.46067
21
-4.86553
0
LINE
8
BLACK
6
CONTINUOUS
10
5.46067
20
-4.86553
11
5.45287
21
-4.86841
0
LINE
8
BLACK
6
CONTINUOUS
10
5.45287
20
-4.86841
11
5.44571
21
-4.87266
0
LINE
8
BLACK
6
CONTINUOUS
10
5.44571
20
-4.87266
11
5.43946
21
-4.87815
0
LINE
8
BLACK
6
CONTINUOUS
10
5.43946
20
-4.87815
11
5.43431
21
-4.88468
0
LINE
8
BLACK
6
CONTINUOUS
10
5.43431
20
-4.88468
11
5.43043
21
-4.89205
0
LINE
8
BLACK
6
CONTINUOUS
10
5.43043
20
-4.89205
11
5.42796
21
-4.9
0
LINE
8
BLACK
6
CONTINUOUS
10
5.42796
20
-4.9
11
5.42699
21
-4.90826
0
LINE
8
BLACK
6
CONTINUOUS
10
5.42699
20
-4.90826
11
5.42753
21
-4.91656
0
LINE
8
BLACK
6
CONTINUOUS
10
5.42753
20
-4.91656
11
5.42958
21
-4.92463
0
LINE
8
BLACK
6
CONTINUOUS
10
4.91113
20
-4.61978
11
4.91501
21
-4.61146
0
LINE
8
BLACK
6
CONTINUOUS
10
4.91501
20
-4.61146
11
4.92028
21
-4.60394
0
LINE
8
BLACK
6
CONTINUOUS
10
4.92028
20
-4.60394
11
4.92677
21
-4.59744
0
LINE
8
BLACK
6
CONTINUOUS
10
4.92677
20
-4.59744
11
4.93429
21
-4.59218
0
LINE
8
BLACK
6
CONTINUOUS
10
4.93429
20
-4.59218
11
4.94261
21
-4.5883
0
LINE
8
BLACK
6
CONTINUOUS
10
4.94261
20
-4.5883
11
4.95148
21
-4.58592
0
LINE
8
BLACK
6
CONTINUOUS
10
4.95148
20
-4.58592
11
4.96063
21
-4.58512
0
LINE
8
BLACK
6
CONTINUOUS
10
4.96063
20
-4.58512
11
4.96978
21
-4.58592
0
LINE
8
BLACK
6
CONTINUOUS
10
4.96978
20
-4.58592
11
4.97865
21
-4.5883
0
LINE
8
BLACK
6
CONTINUOUS
10
4.97865
20
-4.5883
11
4.98697
21
-4.59218
0
LINE
8
BLACK
6
CONTINUOUS
10
4.98697
20
-4.59218
11
4.99449
21
-4.59744
0
LINE
8
BLACK
6
CONTINUOUS
10
4.99449
20
-4.59744
11
5.00098
21
-4.60394
0
LINE
8
BLACK
6
CONTINUOUS
10
5.00098
20
-4.60394
11
5.00625
21
-4.61146
0
LINE
8
BLACK
6
CONTINUOUS
10
5.00625
20
-4.61146
11
5.01013
21
-4.61978
0
LINE
8
BLACK
6
CONTINUOUS
10
5.01013
20
-4.61978
11
5.0125
21
-4.62865
0
LINE
8
BLACK
6
CONTINUOUS
10
5.0125
20
-4.62865
11
5.0133
21
-4.6378
0
LINE
8
BLACK
6
CONTINUOUS
10
5.0133
20
-4.6378
11
5.0125
21
-4.64694
0
LINE
8
BLACK
6
CONTINUOUS
10
5.0125
20
-4.64694
11
5.01013
21
-4.65581
0
LINE
8
BLACK
6
CONTINUOUS
10
5.01013
20
-4.65581
11
5.00625
21
-4.66413
0
LINE
8
BLACK
6
CONTINUOUS
10
5.00625
20
-4.66413
11
5.00098
21
-4.67165
0
LINE
8
BLACK
6
CONTINUOUS
10
5.00098
20
-4.67165
11
4.99449
21
-4.67815
0
LINE
8
BLACK
6
CONTINUOUS
10
4.99449
20
-4.67815
11
4.98697
21
-4.68341
0
LINE
8
BLACK
6
CONTINUOUS
10
4.98697
20
-4.68341
11
4.97865
21
-4.68729
0
LINE
8
BLACK
6
CONTINUOUS
10
4.97865
20
-4.68729
11
4.96978
21
-4.68967
0
LINE
8
BLACK
6
CONTINUOUS
10
4.96978
20
-4.68967
11
4.96063
21
-4.69047
0
LINE
8
BLACK
6
CONTINUOUS
10
4.96063
20
-4.69047
11
4.95148
21
-4.68967
0
LINE
8
BLACK
6
CONTINUOUS
10
4.95148
20
-4.68967
11
4.94261
21
-4.68729
0
LINE
8
BLACK
6
CONTINUOUS
10
4.94261
20
-4.68729
11
4.93429
21
-4.68341
0
LINE
8
BLACK
6
CONTINUOUS
10
4.93429
20
-4.68341
11
4.92677
21
-4.67815
0
LINE
8
BLACK
6
CONTINUOUS
10
4.92677
20
-4.67815
11
4.92028
21
-4.67165
0
LINE
8
BLACK
6
CONTINUOUS
10
4.92028
20
-4.67165
11
4.91501
21
-4.66413
0
LINE
8
BLACK
6
CONTINUOUS
10
4.91501
20
-4.66413
11
4.91113
21
-4.65581
0
LINE
8
BLACK
6
CONTINUOUS
10
4.91113
20
-4.65581
11
4.90876
21
-4.64694
0
LINE
8
BLACK
6
CONTINUOUS
10
4.90876
20
-4.64694
11
4.90796
21
-4.6378
0
LINE
8
BLACK
6
CONTINUOUS
10
4.90796
20
-4.6378
11
4.90806
21
-4.63662
0
LINE
8
BLACK
6
CONTINUOUS
10
4.90806
20
-4.63662
11
4.90876
21
-4.62865
0
LINE
8
BLACK
6
CONTINUOUS
10
4.90876
20
-4.62865
11
4.91113
21
-4.61978
0
LINE
8
BLACK
6
CONTINUOUS
10
4.91822
20
-4.65281
11
4.92166
21
-4.66029
0
LINE
8
BLACK
6
CONTINUOUS
10
4.92166
20
-4.66029
11
4.92642
21
-4.66702
0
LINE
8
BLACK
6
CONTINUOUS
10
4.92642
20
-4.66702
11
4.93232
21
-4.67276
0
LINE
8
BLACK
6
CONTINUOUS
10
4.93232
20
-4.67276
11
4.93916
21
-4.67734
0
LINE
8
BLACK
6
CONTINUOUS
10
4.93916
20
-4.67734
11
4.94673
21
-4.68059
0
LINE
8
BLACK
6
CONTINUOUS
10
4.94673
20
-4.68059
11
4.95476
21
-4.6824
0
LINE
8
BLACK
6
CONTINUOUS
10
4.95476
20
-4.6824
11
4.96298
21
-4.68273
0
LINE
8
BLACK
6
CONTINUOUS
10
4.96298
20
-4.68273
11
4.97113
21
-4.68154
0
LINE
8
BLACK
6
CONTINUOUS
10
4.97113
20
-4.68154
11
4.97893
21
-4.6789
0
LINE
8
BLACK
6
CONTINUOUS
10
4.97893
20
-4.6789
11
4.98611
21
-4.67488
0
LINE
8
BLACK
6
CONTINUOUS
10
4.98611
20
-4.67488
11
4.99244
21
-4.66961
0
LINE
8
BLACK
6
CONTINUOUS
10
4.99244
20
-4.66961
11
4.99771
21
-4.66328
0
LINE
8
BLACK
6
CONTINUOUS
10
4.99771
20
-4.66328
11
5.00173
21
-4.6561
0
LINE
8
BLACK
6
CONTINUOUS
10
5.00173
20
-4.6561
11
5.00438
21
-4.6483
0
LINE
8
BLACK
6
CONTINUOUS
10
5.00438
20
-4.6483
11
5.00556
21
-4.64015
0
LINE
8
BLACK
6
CONTINUOUS
10
5.00556
20
-4.64015
11
5.00562
21
-4.6378
0
LINE
8
BLACK
6
CONTINUOUS
10
5.00562
20
-4.6378
11
5.00487
21
-4.6296
0
LINE
8
BLACK
6
CONTINUOUS
10
5.00487
20
-4.6296
11
5.00263
21
-4.62167
0
LINE
8
BLACK
6
CONTINUOUS
10
5.00263
20
-4.62167
11
4.99899
21
-4.61429
0
LINE
8
BLACK
6
CONTINUOUS
10
4.99899
20
-4.61429
11
4.99407
21
-4.60769
0
LINE
8
BLACK
6
CONTINUOUS
10
4.99407
20
-4.60769
11
4.98802
21
-4.6021
0
LINE
8
BLACK
6
CONTINUOUS
10
4.98802
20
-4.6021
11
4.98106
21
-4.59771
0
LINE
8
BLACK
6
CONTINUOUS
10
4.98106
20
-4.59771
11
4.97341
21
-4.59466
0
LINE
8
BLACK
6
CONTINUOUS
10
4.97341
20
-4.59466
11
4.96533
21
-4.59305
0
LINE
8
BLACK
6
CONTINUOUS
10
4.96533
20
-4.59305
11
4.9571
21
-4.59294
0
LINE
8
BLACK
6
CONTINUOUS
10
4.9571
20
-4.59294
11
4.94898
21
-4.59434
0
LINE
8
BLACK
6
CONTINUOUS
10
4.94898
20
-4.59434
11
4.94126
21
-4.59719
0
LINE
8
BLACK
6
CONTINUOUS
10
4.94126
20
-4.59719
11
4.93418
21
-4.6014
0
LINE
8
BLACK
6
CONTINUOUS
10
4.93418
20
-4.6014
11
4.92799
21
-4.60682
0
LINE
8
BLACK
6
CONTINUOUS
10
4.92799
20
-4.60682
11
4.9229
21
-4.61329
0
LINE
8
BLACK
6
CONTINUOUS
10
4.9229
20
-4.61329
11
4.91906
21
-4.62058
0
LINE
8
BLACK
6
CONTINUOUS
10
4.91906
20
-4.62058
11
4.91662
21
-4.62844
0
LINE
8
BLACK
6
CONTINUOUS
10
4.91662
20
-4.62844
11
4.91565
21
-4.63662
0
LINE
8
BLACK
6
CONTINUOUS
10
4.91565
20
-4.63662
11
4.91619
21
-4.64483
0
LINE
8
BLACK
6
CONTINUOUS
10
4.91619
20
-4.64483
11
4.91822
21
-4.65281
  0
ENDSEC
  0
EOF
