  0
SECTION
  2
HEADER
  9
$ANGBASE
  50
0.0
  9
$ANGDIR
  70
1
  9
$MEASUREMENT
  70
1
  0
ENDSEC
  0
SECTION
  2
TABLES
  0
TABLE
  2
LTYPE
  70
4
  0
LTYPE
  5
40F
  2
CONTINUOUS
  70
0
  3
Solid line
  72
65
  73
0
  40
0.0
  0
LTYPE
  5
410
  2
DASHDOT
 70
0
  3
Dash Dot ____ _ ____ _
 72
65
 73
4
 40
2.0
 49
1.25
 49
-0.25
 49
0.25
 49
-0.25
  0
LTYPE
  5
411
  2
DASHED
 70
0
  3
Dashed __ __ __ __ __
 72
65
 73
2
 40
0.75
 49
0.5
 49
-0.25
  0
LTYPE
  5
43B
  2
DOTTED
 70
0
  3
Dotted .  .  .  .
 72
65
 73
2
 40
0.2
 49
0.0
 49
-0.2
  0
ENDTAB
  0
TABLE
  2
STYLE
  70
4
  0
STYLE
  2
KICAD
  70
0
  40
0
  41
1
  42
1
  50
0
  71
0
  3
isocp.shx
  0
STYLE
  2
KICADB
  70
0
  40
0
  41
1
  42
1
  50
0
  71
0
  3
isocp.shx
  0
STYLE
  2
KICADI
  70
0
  40
0
  41
1
  42
1
  50
15
  71
0
  3
isocp.shx
  0
STYLE
  2
KICADBI
  70
0
  40
0
  41
1
  42
1
  50
15
  71
0
  3
isocp.shx
  0
ENDTAB
  0
TABLE
  2
LAYER
  70
1
  0
LAYER
  2
BLACK
  70
0
  62
7
  6
CONTINUOUS
  0
ENDTAB
  0
ENDSEC
  0
SECTION
  2
ENTITIES
0
LINE
8
BLACK
6
CONTINUOUS
10
143.044
20
-130.206
11
143.257
21
-130.263
0
LINE
8
BLACK
6
CONTINUOUS
10
143.257
20
-130.263
11
143.456
21
-130.356
0
LINE
8
BLACK
6
CONTINUOUS
10
143.456
20
-130.356
11
143.637
21
-130.483
0
LINE
8
BLACK
6
CONTINUOUS
10
143.637
20
-130.483
11
143.792
21
-130.638
0
LINE
8
BLACK
6
CONTINUOUS
10
143.792
20
-130.638
11
143.919
21
-130.819
0
LINE
8
BLACK
6
CONTINUOUS
10
143.919
20
-130.819
11
144.012
21
-131.018
0
LINE
8
BLACK
6
CONTINUOUS
10
144.012
20
-131.018
11
144.069
21
-131.231
0
LINE
8
BLACK
6
CONTINUOUS
10
144.069
20
-131.231
11
144.088
21
-131.45
0
LINE
8
BLACK
6
CONTINUOUS
10
144.088
20
-131.45
11
144.069
21
-131.669
0
LINE
8
BLACK
6
CONTINUOUS
10
144.069
20
-131.669
11
144.012
21
-131.882
0
LINE
8
BLACK
6
CONTINUOUS
10
144.012
20
-131.882
11
143.919
21
-132.081
0
LINE
8
BLACK
6
CONTINUOUS
10
143.919
20
-132.081
11
143.792
21
-132.262
0
LINE
8
BLACK
6
CONTINUOUS
10
143.792
20
-132.262
11
143.637
21
-132.417
0
LINE
8
BLACK
6
CONTINUOUS
10
143.637
20
-132.417
11
143.456
21
-132.544
0
LINE
8
BLACK
6
CONTINUOUS
10
143.456
20
-132.544
11
143.257
21
-132.637
0
LINE
8
BLACK
6
CONTINUOUS
10
143.257
20
-132.637
11
143.044
21
-132.694
0
LINE
8
BLACK
6
CONTINUOUS
10
143.044
20
-132.694
11
142.825
21
-132.713
0
LINE
8
BLACK
6
CONTINUOUS
10
142.825
20
-132.713
11
142.606
21
-132.694
0
LINE
8
BLACK
6
CONTINUOUS
10
142.606
20
-132.694
11
142.393
21
-132.637
0
LINE
8
BLACK
6
CONTINUOUS
10
142.393
20
-132.637
11
142.194
21
-132.544
0
LINE
8
BLACK
6
CONTINUOUS
10
142.194
20
-132.544
11
142.013
21
-132.417
0
LINE
8
BLACK
6
CONTINUOUS
10
142.013
20
-132.417
11
141.858
21
-132.262
0
LINE
8
BLACK
6
CONTINUOUS
10
141.858
20
-132.262
11
141.731
21
-132.081
0
LINE
8
BLACK
6
CONTINUOUS
10
141.731
20
-132.081
11
141.638
21
-131.882
0
LINE
8
BLACK
6
CONTINUOUS
10
141.638
20
-131.882
11
141.581
21
-131.669
0
LINE
8
BLACK
6
CONTINUOUS
10
141.581
20
-131.669
11
141.562
21
-131.45
0
LINE
8
BLACK
6
CONTINUOUS
10
141.562
20
-131.45
11
141.581
21
-131.231
0
LINE
8
BLACK
6
CONTINUOUS
10
141.581
20
-131.231
11
141.638
21
-131.018
0
LINE
8
BLACK
6
CONTINUOUS
10
141.638
20
-131.018
11
141.731
21
-130.819
0
LINE
8
BLACK
6
CONTINUOUS
10
141.731
20
-130.819
11
141.858
21
-130.638
0
LINE
8
BLACK
6
CONTINUOUS
10
141.858
20
-130.638
11
142.013
21
-130.483
0
LINE
8
BLACK
6
CONTINUOUS
10
142.013
20
-130.483
11
142.194
21
-130.356
0
LINE
8
BLACK
6
CONTINUOUS
10
142.194
20
-130.356
11
142.393
21
-130.263
0
LINE
8
BLACK
6
CONTINUOUS
10
142.393
20
-130.263
11
142.606
21
-130.206
0
LINE
8
BLACK
6
CONTINUOUS
10
142.606
20
-130.206
11
142.825
21
-130.187
0
LINE
8
BLACK
6
CONTINUOUS
10
142.825
20
-130.187
11
143.044
21
-130.206
0
LINE
8
BLACK
6
CONTINUOUS
10
141.727
20
-131.655
11
141.783
21
-131.854
0
LINE
8
BLACK
6
CONTINUOUS
10
141.783
20
-131.854
11
141.875
21
-132.038
0
LINE
8
BLACK
6
CONTINUOUS
10
141.875
20
-132.038
11
141.999
21
-132.203
0
LINE
8
BLACK
6
CONTINUOUS
10
141.999
20
-132.203
11
142.152
21
-132.342
0
LINE
8
BLACK
6
CONTINUOUS
10
142.152
20
-132.342
11
142.327
21
-132.45
0
LINE
8
BLACK
6
CONTINUOUS
10
142.327
20
-132.45
11
142.519
21
-132.525
0
LINE
8
BLACK
6
CONTINUOUS
10
142.519
20
-132.525
11
142.722
21
-132.563
0
LINE
8
BLACK
6
CONTINUOUS
10
142.722
20
-132.563
11
142.928
21
-132.563
0
LINE
8
BLACK
6
CONTINUOUS
10
142.928
20
-132.563
11
143.131
21
-132.525
0
LINE
8
BLACK
6
CONTINUOUS
10
143.131
20
-132.525
11
143.323
21
-132.45
0
LINE
8
BLACK
6
CONTINUOUS
10
143.323
20
-132.45
11
143.498
21
-132.342
0
LINE
8
BLACK
6
CONTINUOUS
10
143.498
20
-132.342
11
143.651
21
-132.203
0
LINE
8
BLACK
6
CONTINUOUS
10
143.651
20
-132.203
11
143.775
21
-132.038
0
LINE
8
BLACK
6
CONTINUOUS
10
143.775
20
-132.038
11
143.867
21
-131.854
0
LINE
8
BLACK
6
CONTINUOUS
10
143.867
20
-131.854
11
143.923
21
-131.655
0
LINE
8
BLACK
6
CONTINUOUS
10
143.923
20
-131.655
11
143.942
21
-131.45
0
LINE
8
BLACK
6
CONTINUOUS
10
143.942
20
-131.45
11
143.923
21
-131.245
0
LINE
8
BLACK
6
CONTINUOUS
10
143.923
20
-131.245
11
143.867
21
-131.046
0
LINE
8
BLACK
6
CONTINUOUS
10
143.867
20
-131.046
11
143.775
21
-130.862
0
LINE
8
BLACK
6
CONTINUOUS
10
143.775
20
-130.862
11
143.651
21
-130.697
0
LINE
8
BLACK
6
CONTINUOUS
10
143.651
20
-130.697
11
143.498
21
-130.558
0
LINE
8
BLACK
6
CONTINUOUS
10
143.498
20
-130.558
11
143.323
21
-130.45
0
LINE
8
BLACK
6
CONTINUOUS
10
143.323
20
-130.45
11
143.131
21
-130.375
0
LINE
8
BLACK
6
CONTINUOUS
10
143.131
20
-130.375
11
142.928
21
-130.337
0
LINE
8
BLACK
6
CONTINUOUS
10
142.928
20
-130.337
11
142.722
21
-130.337
0
LINE
8
BLACK
6
CONTINUOUS
10
142.722
20
-130.337
11
142.519
21
-130.375
0
LINE
8
BLACK
6
CONTINUOUS
10
142.519
20
-130.375
11
142.327
21
-130.45
0
LINE
8
BLACK
6
CONTINUOUS
10
142.327
20
-130.45
11
142.152
21
-130.558
0
LINE
8
BLACK
6
CONTINUOUS
10
142.152
20
-130.558
11
141.999
21
-130.697
0
LINE
8
BLACK
6
CONTINUOUS
10
141.999
20
-130.697
11
141.875
21
-130.862
0
LINE
8
BLACK
6
CONTINUOUS
10
141.875
20
-130.862
11
141.783
21
-131.046
0
LINE
8
BLACK
6
CONTINUOUS
10
141.783
20
-131.046
11
141.727
21
-131.245
0
LINE
8
BLACK
6
CONTINUOUS
10
141.727
20
-131.245
11
141.708
21
-131.45
0
LINE
8
BLACK
6
CONTINUOUS
10
141.708
20
-131.45
11
141.727
21
-131.655
0
LINE
8
BLACK
6
CONTINUOUS
10
130.007
20
-123.281
11
130.22
21
-123.338
0
LINE
8
BLACK
6
CONTINUOUS
10
130.22
20
-123.338
11
130.419
21
-123.431
0
LINE
8
BLACK
6
CONTINUOUS
10
130.419
20
-123.431
11
130.599
21
-123.558
0
LINE
8
BLACK
6
CONTINUOUS
10
130.599
20
-123.558
11
130.755
21
-123.713
0
LINE
8
BLACK
6
CONTINUOUS
10
130.755
20
-123.713
11
130.881
21
-123.894
0
LINE
8
BLACK
6
CONTINUOUS
10
130.881
20
-123.894
11
130.974
21
-124.093
0
LINE
8
BLACK
6
CONTINUOUS
10
130.974
20
-124.093
11
131.031
21
-124.306
0
LINE
8
BLACK
6
CONTINUOUS
10
131.031
20
-124.306
11
131.05
21
-124.525
0
LINE
8
BLACK
6
CONTINUOUS
10
131.05
20
-124.525
11
131.031
21
-124.744
0
LINE
8
BLACK
6
CONTINUOUS
10
131.031
20
-124.744
11
130.974
21
-124.957
0
LINE
8
BLACK
6
CONTINUOUS
10
130.974
20
-124.957
11
130.881
21
-125.156
0
LINE
8
BLACK
6
CONTINUOUS
10
130.881
20
-125.156
11
130.755
21
-125.337
0
LINE
8
BLACK
6
CONTINUOUS
10
130.755
20
-125.337
11
130.599
21
-125.492
0
LINE
8
BLACK
6
CONTINUOUS
10
130.599
20
-125.492
11
130.419
21
-125.619
0
LINE
8
BLACK
6
CONTINUOUS
10
130.419
20
-125.619
11
130.22
21
-125.712
0
LINE
8
BLACK
6
CONTINUOUS
10
130.22
20
-125.712
11
130.007
21
-125.769
0
LINE
8
BLACK
6
CONTINUOUS
10
130.007
20
-125.769
11
129.788
21
-125.788
0
LINE
8
BLACK
6
CONTINUOUS
10
129.788
20
-125.788
11
129.568
21
-125.769
0
LINE
8
BLACK
6
CONTINUOUS
10
129.568
20
-125.769
11
129.356
21
-125.712
0
LINE
8
BLACK
6
CONTINUOUS
10
129.356
20
-125.712
11
129.156
21
-125.619
0
LINE
8
BLACK
6
CONTINUOUS
10
129.156
20
-125.619
11
128.976
21
-125.492
0
LINE
8
BLACK
6
CONTINUOUS
10
128.976
20
-125.492
11
128.82
21
-125.337
0
LINE
8
BLACK
6
CONTINUOUS
10
128.82
20
-125.337
11
128.694
21
-125.156
0
LINE
8
BLACK
6
CONTINUOUS
10
128.694
20
-125.156
11
128.601
21
-124.957
0
LINE
8
BLACK
6
CONTINUOUS
10
128.601
20
-124.957
11
128.544
21
-124.744
0
LINE
8
BLACK
6
CONTINUOUS
10
128.544
20
-124.744
11
128.525
21
-124.525
0
LINE
8
BLACK
6
CONTINUOUS
10
128.525
20
-124.525
11
128.544
21
-124.306
0
LINE
8
BLACK
6
CONTINUOUS
10
128.544
20
-124.306
11
128.601
21
-124.093
0
LINE
8
BLACK
6
CONTINUOUS
10
128.601
20
-124.093
11
128.694
21
-123.894
0
LINE
8
BLACK
6
CONTINUOUS
10
128.694
20
-123.894
11
128.82
21
-123.713
0
LINE
8
BLACK
6
CONTINUOUS
10
128.82
20
-123.713
11
128.976
21
-123.558
0
LINE
8
BLACK
6
CONTINUOUS
10
128.976
20
-123.558
11
129.156
21
-123.431
0
LINE
8
BLACK
6
CONTINUOUS
10
129.156
20
-123.431
11
129.356
21
-123.338
0
LINE
8
BLACK
6
CONTINUOUS
10
129.356
20
-123.338
11
129.568
21
-123.281
0
LINE
8
BLACK
6
CONTINUOUS
10
129.568
20
-123.281
11
129.788
21
-123.262
0
LINE
8
BLACK
6
CONTINUOUS
10
129.788
20
-123.262
11
130.007
21
-123.281
0
LINE
8
BLACK
6
CONTINUOUS
10
128.689
20
-124.73
11
128.746
21
-124.929
0
LINE
8
BLACK
6
CONTINUOUS
10
128.746
20
-124.929
11
128.838
21
-125.113
0
LINE
8
BLACK
6
CONTINUOUS
10
128.838
20
-125.113
11
128.962
21
-125.278
0
LINE
8
BLACK
6
CONTINUOUS
10
128.962
20
-125.278
11
129.114
21
-125.417
0
LINE
8
BLACK
6
CONTINUOUS
10
129.114
20
-125.417
11
129.29
21
-125.525
0
LINE
8
BLACK
6
CONTINUOUS
10
129.29
20
-125.525
11
129.482
21
-125.6
0
LINE
8
BLACK
6
CONTINUOUS
10
129.482
20
-125.6
11
129.685
21
-125.638
0
LINE
8
BLACK
6
CONTINUOUS
10
129.685
20
-125.638
11
129.891
21
-125.638
0
LINE
8
BLACK
6
CONTINUOUS
10
129.891
20
-125.638
11
130.094
21
-125.6
0
LINE
8
BLACK
6
CONTINUOUS
10
130.094
20
-125.6
11
130.286
21
-125.525
0
LINE
8
BLACK
6
CONTINUOUS
10
130.286
20
-125.525
11
130.461
21
-125.417
0
LINE
8
BLACK
6
CONTINUOUS
10
130.461
20
-125.417
11
130.614
21
-125.278
0
LINE
8
BLACK
6
CONTINUOUS
10
130.614
20
-125.278
11
130.738
21
-125.113
0
LINE
8
BLACK
6
CONTINUOUS
10
130.738
20
-125.113
11
130.83
21
-124.929
0
LINE
8
BLACK
6
CONTINUOUS
10
130.83
20
-124.929
11
130.886
21
-124.73
0
LINE
8
BLACK
6
CONTINUOUS
10
130.886
20
-124.73
11
130.905
21
-124.525
0
LINE
8
BLACK
6
CONTINUOUS
10
130.905
20
-124.525
11
130.886
21
-124.32
0
LINE
8
BLACK
6
CONTINUOUS
10
130.886
20
-124.32
11
130.83
21
-124.121
0
LINE
8
BLACK
6
CONTINUOUS
10
130.83
20
-124.121
11
130.738
21
-123.937
0
LINE
8
BLACK
6
CONTINUOUS
10
130.738
20
-123.937
11
130.614
21
-123.772
0
LINE
8
BLACK
6
CONTINUOUS
10
130.614
20
-123.772
11
130.461
21
-123.633
0
LINE
8
BLACK
6
CONTINUOUS
10
130.461
20
-123.633
11
130.286
21
-123.525
0
LINE
8
BLACK
6
CONTINUOUS
10
130.286
20
-123.525
11
130.094
21
-123.45
0
LINE
8
BLACK
6
CONTINUOUS
10
130.094
20
-123.45
11
129.891
21
-123.412
0
LINE
8
BLACK
6
CONTINUOUS
10
129.891
20
-123.412
11
129.685
21
-123.412
0
LINE
8
BLACK
6
CONTINUOUS
10
129.685
20
-123.412
11
129.482
21
-123.45
0
LINE
8
BLACK
6
CONTINUOUS
10
129.482
20
-123.45
11
129.29
21
-123.525
0
LINE
8
BLACK
6
CONTINUOUS
10
129.29
20
-123.525
11
129.114
21
-123.633
0
LINE
8
BLACK
6
CONTINUOUS
10
129.114
20
-123.633
11
128.962
21
-123.772
0
LINE
8
BLACK
6
CONTINUOUS
10
128.962
20
-123.772
11
128.838
21
-123.937
0
LINE
8
BLACK
6
CONTINUOUS
10
128.838
20
-123.937
11
128.746
21
-124.121
0
LINE
8
BLACK
6
CONTINUOUS
10
128.746
20
-124.121
11
128.689
21
-124.32
0
LINE
8
BLACK
6
CONTINUOUS
10
128.689
20
-124.32
11
128.67
21
-124.525
0
LINE
8
BLACK
6
CONTINUOUS
10
128.67
20
-124.525
11
128.689
21
-124.73
0
LINE
8
BLACK
6
CONTINUOUS
10
148.202
20
-73.0501
11
148.202
21
-73.0501
0
LINE
8
BLACK
6
CONTINUOUS
10
148.202
20
-73.0501
11
148.203
21
-73.0501
0
LINE
8
BLACK
6
CONTINUOUS
10
148.203
20
-73.0501
11
148.203
21
-73.0501
0
LINE
8
BLACK
6
CONTINUOUS
10
148.203
20
-73.0501
11
148.384
21
-73.0751
0
LINE
8
BLACK
6
CONTINUOUS
10
148.384
20
-73.0751
11
148.558
21
-73.1311
0
LINE
8
BLACK
6
CONTINUOUS
10
148.558
20
-73.1311
11
148.72
21
-73.2165
0
LINE
8
BLACK
6
CONTINUOUS
10
148.72
20
-73.2165
11
148.864
21
-73.3287
0
LINE
8
BLACK
6
CONTINUOUS
10
148.864
20
-73.3287
11
148.987
21
-73.4642
0
LINE
8
BLACK
6
CONTINUOUS
10
148.987
20
-73.4642
11
149.085
21
-73.619
0
LINE
8
BLACK
6
CONTINUOUS
10
149.085
20
-73.619
11
149.154
21
-73.7884
0
LINE
8
BLACK
6
CONTINUOUS
10
149.154
20
-73.7884
11
149.193
21
-73.9672
0
LINE
8
BLACK
6
CONTINUOUS
10
149.193
20
-73.9672
11
149.2
21
-74.15
0
LINE
8
BLACK
6
CONTINUOUS
10
149.2
20
-74.15
11
149.2
21
-74.1501
0
LINE
8
BLACK
6
CONTINUOUS
10
149.2
20
-74.1501
11
149.2
21
-74.1502
0
LINE
8
BLACK
6
CONTINUOUS
10
149.2
20
-74.1502
11
145.975
21
-136.003
0
LINE
8
BLACK
6
CONTINUOUS
10
145.975
20
-136.003
11
145.97
21
-136.013
0
LINE
8
BLACK
6
CONTINUOUS
10
145.97
20
-136.013
11
145.968
21
-136.025
0
LINE
8
BLACK
6
CONTINUOUS
10
145.968
20
-136.025
11
145.962
21
-136.03
0
LINE
8
BLACK
6
CONTINUOUS
10
145.962
20
-136.03
11
145.958
21
-136.037
0
LINE
8
BLACK
6
CONTINUOUS
10
145.958
20
-136.037
11
145.947
21
-136.041
0
LINE
8
BLACK
6
CONTINUOUS
10
145.947
20
-136.041
11
145.938
21
-136.048
0
LINE
8
BLACK
6
CONTINUOUS
10
145.938
20
-136.048
11
145.93
21
-136.047
0
LINE
8
BLACK
6
CONTINUOUS
10
145.93
20
-136.047
11
145.922
21
-136.05
0
LINE
8
BLACK
6
CONTINUOUS
10
145.922
20
-136.05
11
145.912
21
-136.045
0
LINE
8
BLACK
6
CONTINUOUS
10
145.912
20
-136.045
11
145.9
21
-136.043
0
LINE
8
BLACK
6
CONTINUOUS
10
145.9
20
-136.043
11
125.875
21
-124.693
0
LINE
8
BLACK
6
CONTINUOUS
10
125.875
20
-124.693
11
125.87
21
-124.687
0
LINE
8
BLACK
6
CONTINUOUS
10
125.87
20
-124.687
11
125.863
21
-124.683
0
LINE
8
BLACK
6
CONTINUOUS
10
125.863
20
-124.683
11
125.859
21
-124.673
0
LINE
8
BLACK
6
CONTINUOUS
10
125.859
20
-124.673
11
125.852
21
-124.663
0
LINE
8
BLACK
6
CONTINUOUS
10
125.852
20
-124.663
11
125.853
21
-124.655
0
LINE
8
BLACK
6
CONTINUOUS
10
125.853
20
-124.655
11
125.85
21
-124.647
0
LINE
8
BLACK
6
CONTINUOUS
10
125.85
20
-124.647
11
128.55
21
-72.0974
0
LINE
8
BLACK
6
CONTINUOUS
10
128.55
20
-72.0974
11
128.558
21
-72.081
0
LINE
8
BLACK
6
CONTINUOUS
10
128.558
20
-72.081
11
128.566
21
-72.0629
0
LINE
8
BLACK
6
CONTINUOUS
10
128.566
20
-72.0629
11
128.567
21
-72.0629
0
LINE
8
BLACK
6
CONTINUOUS
10
128.567
20
-72.0629
11
128.567
21
-72.0629
0
LINE
8
BLACK
6
CONTINUOUS
10
128.567
20
-72.0629
11
128.584
21
-72.0566
0
LINE
8
BLACK
6
CONTINUOUS
10
128.584
20
-72.0566
11
128.603
21
-72.0501
0
LINE
8
BLACK
6
CONTINUOUS
10
128.603
20
-72.0501
11
148.202
21
-73.0501
0
LINE
8
BLACK
6
CONTINUOUS
10
125.952
20
-124.622
11
145.879
21
-135.917
0
LINE
8
BLACK
6
CONTINUOUS
10
145.879
20
-135.917
11
149.1
21
-74.1452
0
LINE
8
BLACK
6
CONTINUOUS
10
149.1
20
-74.1452
11
149.104
21
-74.0622
0
LINE
8
BLACK
6
CONTINUOUS
10
149.104
20
-74.0622
11
149.083
21
-73.8974
0
LINE
8
BLACK
6
CONTINUOUS
10
149.083
20
-73.8974
11
149.034
21
-73.7387
0
LINE
8
BLACK
6
CONTINUOUS
10
149.034
20
-73.7387
11
148.958
21
-73.5909
0
LINE
8
BLACK
6
CONTINUOUS
10
148.958
20
-73.5909
11
148.857
21
-73.4585
0
LINE
8
BLACK
6
CONTINUOUS
10
148.857
20
-73.4585
11
148.735
21
-73.3456
0
LINE
8
BLACK
6
CONTINUOUS
10
148.735
20
-73.3456
11
148.596
21
-73.2555
0
LINE
8
BLACK
6
CONTINUOUS
10
148.596
20
-73.2555
11
148.443
21
-73.191
0
LINE
8
BLACK
6
CONTINUOUS
10
148.443
20
-73.191
11
148.28
21
-73.1541
0
LINE
8
BLACK
6
CONTINUOUS
10
148.28
20
-73.1541
11
148.198
21
-73.1499
0
LINE
8
BLACK
6
CONTINUOUS
10
148.198
20
-73.1499
11
148.197
21
-73.1499
0
LINE
8
BLACK
6
CONTINUOUS
10
148.197
20
-73.1499
11
148.197
21
-73.1499
0
LINE
8
BLACK
6
CONTINUOUS
10
148.197
20
-73.1499
11
128.647
21
-72.1525
0
LINE
8
BLACK
6
CONTINUOUS
10
128.647
20
-72.1525
11
125.952
21
-124.622
  0
ENDSEC
  0
EOF
